<?xml version="1.0" standalone="no"?>
<!DOCTYPE svg PUBLIC "-//W3C//DTD SVG 20010904//EN"
 "http://www.w3.org/TR/2001/REC-SVG-20010904/DTD/svg10.dtd">
<svg version="1.0" xmlns="http://www.w3.org/2000/svg"
 width="1024.000000pt" height="1024.000000pt" viewBox="0 0 1024.000000 1024.000000"
 preserveAspectRatio="xMidYMid meet">
<metadata>
Created by potrace 1.14, written by Peter Selinger 2001-2017
</metadata>
<g transform="translate(0.000000,1024.000000) scale(0.100000,-0.100000)"
fill="#000000" stroke="none">
<path d="M1956 9568 c-4 -18 -7 -164 -6 -324 0 -234 -2 -293 -13 -302 -9 -8
-110 -13 -318 -14 l-304 -3 -3 -305 c-2 -273 -4 -306 -19 -317 -13 -10 -90
-13 -304 -13 -157 0 -301 -3 -318 -6 l-31 -6 0 -289 c0 -250 2 -289 15 -289
13 0 15 -293 15 -2580 0 -2287 -2 -2580 -15 -2580 -13 0 -15 -39 -15 -289 l0
-288 31 -7 c17 -3 161 -6 320 -6 252 0 290 -2 304 -16 14 -15 16 -51 15 -308
-1 -160 -1 -297 -1 -303 1 -10 69 -13 305 -13 268 0 307 -2 321 -16 14 -15 16
-51 15 -308 -1 -160 1 -303 5 -318 l7 -28 3158 0 3158 0 7 28 c4 15 6 158 5
318 -1 257 1 293 15 308 14 14 53 16 321 16 236 0 304 3 305 13 0 6 0 143 -1
303 -1 257 1 293 15 308 14 14 53 16 313 16 163 0 307 3 320 6 l22 6 0 3158 0
3158 -22 6 c-13 3 -157 6 -320 6 -260 0 -299 2 -313 16 -14 15 -16 51 -15 308
1 160 1 297 1 304 -1 9 -69 12 -305 12 -266 0 -307 2 -321 16 -14 14 -15 53
-15 302 1 158 -2 302 -6 320 l-7 32 -288 0 c-250 0 -289 -2 -289 -15 0 -13
-293 -15 -2580 -15 -2287 0 -2580 2 -2580 15 0 13 -39 15 -289 15 l-288 0 -7
-32z m2674 -1227 c0 -13 -37 -21 -97 -21 -52 0 -53 0 -53 -30 0 -20 -5 -30
-15 -30 -8 0 -15 -4 -15 -10 0 -6 -28 -10 -65 -10 -65 0 -65 0 -65 -28 0 -43
-17 -52 -92 -52 -67 0 -68 0 -68 -27 0 -36 -35 -53 -107 -53 -51 0 -53 -1 -53
-28 0 -43 -17 -52 -92 -52 l-68 0 0 -30 c0 -23 -5 -30 -19 -30 -11 0 -23 -4
-26 -10 -3 -5 -31 -10 -61 -10 -52 0 -54 -1 -54 -26 0 -39 -26 -53 -96 -54
-60 0 -62 -1 -67 -30 -5 -21 -12 -30 -26 -30 -11 0 -23 -4 -26 -10 -3 -5 -28
-10 -56 -10 -47 0 -49 -1 -49 -27 0 -40 -36 -53 -147 -53 -79 0 -93 -2 -93
-16 0 -13 8 -15 40 -12 22 2 40 1 40 -2 0 -15 -86 -50 -121 -50 -36 0 -39 -2
-39 -27 0 -36 -35 -53 -107 -53 -48 0 -53 -2 -53 -23 0 -31 -33 -48 -101 -54
-53 -5 -58 -8 -61 -32 -4 -34 -39 -51 -105 -51 -51 0 -53 -1 -54 -27 l-2 -28
-4 28 c-2 15 -9 27 -14 27 -5 0 -9 67 -9 159 0 132 3 162 16 175 13 14 56 16
314 16 187 0 301 4 305 10 3 5 6 143 5 306 0 210 3 300 11 310 10 12 130 14
730 14 409 0 719 -4 719 -9z m2428 -3 c9 -9 12 -97 12 -335 l0 -323 -40 0
c-41 0 -90 17 -90 32 0 4 -9 8 -20 8 -11 0 -25 9 -32 20 -9 14 -24 20 -46 20
-25 0 -35 5 -39 20 -3 11 -12 20 -20 20 -8 0 -26 9 -40 20 -14 11 -38 20 -52
20 -30 0 -81 21 -81 33 0 4 -9 7 -21 7 -12 0 -23 8 -26 19 -3 13 -17 21 -44
25 -22 4 -42 13 -45 21 -4 8 -14 15 -24 15 -9 0 -25 9 -35 20 -10 11 -32 20
-49 21 -17 0 -44 9 -61 20 -16 11 -38 22 -47 25 -10 4 -18 13 -18 20 0 9 -11
14 -29 14 -15 0 -40 9 -54 20 -14 11 -32 20 -41 20 -9 0 -21 9 -28 20 -9 14
-24 20 -49 20 -24 0 -39 5 -43 15 -3 8 -15 15 -26 15 -11 0 -20 5 -20 10 0 6
-7 10 -15 10 -8 0 -15 7 -15 15 0 10 -10 15 -27 16 -16 0 -41 9 -58 20 -16 10
-40 23 -52 29 -13 5 -23 14 -23 18 0 5 -18 12 -40 16 -22 3 -40 11 -40 16 0
16 1363 13 1378 -2z m-1894 -149 c-3 -5 -10 -7 -15 -3 -5 3 -7 10 -3 15 3 5
10 7 15 3 5 -3 7 -10 3 -15z m429 -9 c9 0 19 -4 22 -10 4 -6 -5 -10 -19 -10
-14 0 -26 5 -26 10 0 6 -7 10 -15 10 -16 0 -20 12 -8 24 4 4 13 0 19 -8 6 -9
18 -16 27 -16z m-453 -10 c0 -5 -12 -10 -26 -10 -14 0 -23 4 -19 10 3 6 15 10
26 10 10 0 19 -4 19 -10z m75 0 c4 -6 -5 -10 -19 -10 -14 0 -26 5 -26 10 0 6
9 10 19 10 11 0 23 -4 26 -10z m320 0 c4 -6 -5 -10 -20 -10 -15 0 -24 4 -20
10 3 6 12 10 20 10 8 0 17 -4 20 -10z m-461 -16 c18 -7 12 -24 -10 -24 -8 0
-14 7 -14 15 0 17 2 18 24 9z m186 -9 c0 -8 -6 -15 -14 -15 -20 0 -29 17 -14
23 22 9 28 7 28 -8z m215 9 c13 -5 14 -8 3 -15 -19 -13 -28 -11 -28 6 0 17 2
18 25 9z m185 -9 c0 -8 9 -15 19 -15 11 0 23 -5 26 -10 3 -6 17 -7 30 -4 12 3
26 1 29 -5 4 -6 16 -11 27 -11 10 0 19 -4 19 -10 0 -5 9 -10 19 -10 11 0 23
-4 26 -10 3 -5 21 -16 40 -25 46 -20 92 -42 135 -65 19 -10 52 -25 73 -34 20
-10 37 -22 37 -29 0 -13 -44 -37 -67 -37 -8 0 -16 -7 -19 -15 -4 -8 -12 -15
-19 -15 -20 0 -65 -26 -58 -33 3 -4 16 -7 29 -7 12 0 24 -7 28 -15 3 -8 15
-15 26 -15 11 0 20 -4 20 -10 0 -5 16 -10 35 -10 19 0 35 -4 35 -10 0 -5 -4
-10 -9 -10 -5 0 -13 -9 -16 -20 -3 -11 -15 -20 -25 -20 -10 0 -21 -4 -25 -9
-18 -29 -185 -86 -185 -63 0 5 -8 12 -17 16 -10 3 -31 14 -48 25 -16 11 -37
20 -46 20 -9 1 -20 9 -24 19 -6 16 -7 16 -19 0 -7 -10 -22 -18 -34 -18 -11 0
-22 -7 -26 -15 -3 -8 -12 -12 -21 -9 -8 4 -17 -1 -21 -10 -3 -9 -15 -16 -25
-16 -10 0 -19 -4 -19 -10 0 -22 -129 3 -144 29 -4 6 -13 8 -20 5 -7 -3 -16 2
-19 10 -4 9 -14 16 -23 16 -9 0 -23 8 -30 18 -12 16 -13 16 -19 0 -4 -10 -17
-18 -30 -18 -13 0 -26 -7 -29 -16 -3 -8 -11 -12 -17 -8 -7 4 -18 -1 -26 -12
-11 -15 -26 -19 -78 -19 -52 0 -67 4 -78 19 -8 11 -19 16 -26 12 -6 -4 -14 0
-17 8 -3 9 -15 16 -26 16 -12 0 -27 8 -34 18 -12 16 -13 16 -19 0 -4 -10 -16
-18 -26 -18 -11 0 -22 -7 -25 -15 -4 -8 -10 -12 -16 -9 -5 3 -17 0 -26 -8 -9
-7 -26 -18 -37 -24 -25 -14 -105 -16 -105 -3 0 5 -9 9 -19 9 -10 0 -22 7 -25
16 -4 9 -13 14 -21 10 -9 -3 -18 1 -21 9 -4 8 -15 15 -26 15 -12 0 -27 8 -34
18 -12 16 -13 16 -19 0 -4 -10 -15 -18 -24 -19 -9 0 -29 -9 -46 -20 -16 -11
-38 -22 -47 -25 -10 -4 -18 -11 -18 -16 0 -23 -167 34 -185 63 -4 5 -15 9 -25
9 -10 0 -22 9 -25 20 -3 11 -11 20 -16 20 -5 0 -9 5 -9 10 0 6 16 10 35 10 19
0 35 5 35 10 0 6 9 10 20 10 11 0 23 7 26 15 4 8 17 15 29 15 13 0 27 5 30 10
3 6 -3 10 -14 10 -12 0 -21 5 -21 10 0 6 -9 10 -19 10 -10 0 -21 7 -25 15 -3
8 -11 15 -19 15 -7 0 -25 6 -40 13 -31 14 -37 47 -8 47 11 0 23 5 26 10 3 6
15 10 25 10 10 0 20 3 22 8 8 18 114 62 136 56 13 -4 22 -2 22 5 0 6 9 11 20
11 11 0 20 5 20 10 0 6 9 10 20 10 11 0 20 -4 20 -10 0 -5 -9 -10 -20 -10 -11
0 -20 -4 -20 -10 0 -5 -7 -10 -16 -10 -13 0 -14 -3 -4 -15 7 -8 16 -13 20 -10
4 3 13 -2 20 -10 7 -8 21 -15 31 -15 11 0 19 -4 19 -10 0 -5 15 -10 34 -10 19
0 38 5 41 10 3 6 14 10 25 10 10 0 21 7 24 15 3 9 13 15 22 13 9 -2 19 3 21
10 3 6 -2 12 -11 12 -9 0 -16 5 -16 10 0 13 17 13 26 -1 8 -14 81 -4 104 14
26 21 59 37 75 37 8 0 15 4 15 9 0 14 67 33 89 26 11 -3 22 -1 26 5 3 5 14 10
23 10 12 0 13 -3 4 -12 -18 -18 -14 -28 12 -28 13 0 26 -7 30 -15 3 -8 12 -12
21 -9 8 4 17 -1 21 -10 8 -22 70 -22 78 0 4 9 13 14 21 10 9 -3 18 1 21 9 4 8
17 15 30 15 26 0 30 10 12 28 -9 9 -9 12 3 12 9 0 19 -3 23 -7 10 -10 96 -12
102 -2 3 5 13 9 22 9 12 0 13 -3 4 -12 -17 -17 -15 -28 7 -28 10 0 24 -6 31
-14 6 -8 17 -13 24 -10 8 3 16 -2 19 -10 9 -22 73 -22 81 0 4 9 13 14 21 10 9
-3 18 1 21 9 4 8 14 15 24 15 35 0 32 20 -5 36 -20 8 -33 19 -30 24 10 16 35
12 35 -5z m-1090 -45 c0 -5 -5 -10 -11 -10 -5 0 -7 5 -4 10 3 6 8 10 11 10 2
0 4 -4 4 -10z m-36 -16 c18 -7 12 -24 -10 -24 -8 0 -14 7 -14 15 0 17 2 18 24
9z m66 -4 c0 -5 -5 -10 -11 -10 -5 0 -7 5 -4 10 3 6 8 10 11 10 2 0 4 -4 4
-10z m50 -30 c0 -5 -4 -10 -9 -10 -6 0 -13 5 -16 10 -3 6 1 10 9 10 9 0 16 -4
16 -10z m-490 -160 c0 -5 -7 -10 -16 -10 -8 0 -12 5 -9 10 3 6 10 10 16 10 5
0 9 -4 9 -10z m2015 0 c3 -5 -3 -10 -15 -10 -12 0 -18 5 -15 10 3 6 10 10 15
10 5 0 12 -4 15 -10z m-2061 -16 c18 -7 12 -24 -10 -24 -8 0 -14 7 -14 15 0
17 2 18 24 9z m2106 -9 c0 -8 -6 -15 -14 -15 -20 0 -29 17 -14 23 22 9 28 7
28 -8z m-2140 -21 c0 -12 -34 -33 -52 -34 -10 0 -18 5 -18 10 0 6 7 10 15 10
8 0 15 5 15 10 0 6 9 10 20 10 11 0 20 -3 20 -6z m2190 -4 c0 -5 7 -10 15 -10
8 0 15 -4 15 -10 0 -14 -32 -12 -52 4 -23 17 -23 26 2 26 11 0 20 -4 20 -10z
m-2170 -39 c0 -11 -26 -22 -34 -14 -12 12 -5 23 14 23 11 0 20 -4 20 -9z
m2150 1 c0 -14 -11 -21 -26 -15 -21 8 -17 23 6 23 11 0 20 -4 20 -8z m-2106
-33 c-7 -11 -34 -12 -34 -1 0 14 11 21 26 15 8 -3 11 -9 8 -14z m2053 -5 c-3
-4 -14 -3 -24 0 -15 6 -15 8 -3 16 16 10 39 -4 27 -16z m-2587 -145 c0 -5 6
-9 13 -9 18 0 75 -28 82 -41 4 -5 14 -9 23 -9 10 0 28 -13 42 -30 14 -16 33
-30 42 -30 10 0 18 -4 18 -10 0 -5 -9 -10 -20 -10 -11 0 -20 5 -20 10 0 6 -13
10 -30 10 -16 0 -30 -4 -30 -10 0 -5 -9 -10 -20 -10 -11 0 -23 -7 -27 -16 -3
-8 -11 -13 -19 -10 -16 6 -38 -19 -29 -34 3 -5 14 -10 24 -10 10 0 24 -7 31
-15 7 -9 15 -13 18 -10 3 3 11 0 19 -6 19 -16 89 -55 146 -81 26 -12 47 -25
47 -30 0 -4 9 -8 19 -8 11 0 23 -5 26 -10 9 -15 -4 -50 -19 -50 -17 0 -74 -29
-81 -41 -4 -5 -15 -9 -26 -9 -33 0 -21 -19 25 -40 25 -11 48 -24 51 -30 3 -5
15 -10 26 -10 25 0 27 -45 2 -54 -10 -3 -25 -10 -33 -15 -8 -5 -31 -16 -51
-25 -41 -18 -71 -46 -48 -46 22 0 169 -74 169 -85 0 -5 -41 -29 -90 -53 -50
-24 -90 -49 -90 -57 0 -8 -7 -11 -19 -8 -11 3 -21 -2 -24 -11 -4 -9 -16 -16
-27 -16 -11 0 -20 -4 -20 -10 0 -5 -7 -10 -15 -10 -8 0 -23 -4 -33 -9 -9 -5
-25 -12 -35 -15 -22 -7 -13 -26 13 -26 10 0 22 -4 25 -10 3 -5 15 -10 26 -10
10 0 19 -4 19 -10 0 -5 9 -10 20 -10 18 0 40 -26 40 -49 0 -6 -9 -11 -19 -11
-11 0 -22 -4 -26 -9 -7 -13 -64 -41 -82 -41 -7 0 -13 -4 -13 -10 0 -5 -16 -10
-35 -10 -19 0 -35 5 -35 10 0 6 -8 10 -17 11 -10 0 -31 9 -48 20 -16 10 -37
21 -45 25 -31 12 -105 46 -120 55 -8 5 -31 16 -50 25 -49 24 -90 54 -90 65 0
5 11 9 24 9 13 0 29 7 36 15 7 8 16 13 20 10 4 -3 13 2 20 10 7 8 20 15 30 15
9 0 20 3 23 7 7 7 -38 33 -58 33 -7 0 -15 7 -19 15 -3 8 -15 15 -26 15 -11 0
-20 5 -20 10 0 6 -9 10 -20 10 -11 0 -20 4 -20 10 0 5 -17 16 -37 25 -21 9
-45 21 -53 26 -8 5 -34 18 -57 29 -24 11 -43 27 -43 34 0 8 -7 16 -15 20 -8 3
-15 10 -15 16 0 5 7 10 15 10 8 0 15 -7 15 -15 0 -8 9 -15 20 -15 11 0 23 7
26 15 4 8 15 15 25 15 10 0 19 5 19 10 0 6 11 10 25 10 14 0 25 5 25 10 0 6 7
10 16 10 9 0 14 6 12 13 -3 6 -13 12 -24 12 -10 0 -23 6 -27 13 -4 6 -17 12
-27 12 -11 0 -20 4 -20 9 0 5 -12 11 -27 13 -20 2 -29 9 -31 26 -4 28 14 53
34 45 7 -3 17 2 20 11 3 9 12 16 20 16 8 0 22 4 32 9 9 5 25 12 36 15 17 6 16
8 -7 26 -14 11 -32 20 -41 20 -9 0 -16 5 -16 10 0 6 -9 10 -19 10 -11 0 -23 5
-26 10 -3 6 -15 10 -26 10 -10 0 -19 -4 -19 -10 0 -5 -7 -10 -15 -10 -8 0 -15
5 -15 10 0 6 6 10 14 10 8 0 18 9 21 20 3 11 14 20 23 21 9 0 31 9 47 19 17
11 46 26 65 35 48 23 58 28 113 58 26 15 54 27 62 27 7 0 15 4 17 8 2 5 32 23
68 41 36 17 72 35 80 40 94 52 140 66 140 40z m870 -9 c0 -5 -9 -10 -20 -10
-11 0 -20 5 -20 10 0 6 9 10 20 10 11 0 20 -4 20 -10z m220 0 c0 -5 -9 -10
-20 -10 -11 0 -20 5 -20 10 0 6 9 10 20 10 11 0 20 -4 20 -10z m180 0 c0 -5 9
-10 19 -10 26 0 35 -16 14 -24 -11 -4 -22 -1 -29 8 -6 9 -19 16 -28 16 -9 0
-16 5 -16 10 0 6 9 10 20 10 11 0 20 -4 20 -10z m195 0 c-3 -5 -13 -10 -22
-10 -9 0 -21 -7 -27 -16 -7 -9 -18 -12 -29 -8 -21 8 -12 24 14 24 10 0 19 5
19 10 0 6 12 10 26 10 14 0 23 -4 19 -10z m205 0 c0 -5 9 -10 19 -10 26 0 35
-16 14 -24 -11 -4 -22 -1 -29 8 -6 9 -18 16 -27 16 -9 0 -19 5 -22 10 -4 6 5
10 19 10 14 0 26 -4 26 -10z m190 0 c0 -5 -7 -10 -16 -10 -9 0 -22 -7 -28 -16
-7 -9 -18 -12 -29 -8 -21 8 -12 24 14 24 10 0 19 5 19 10 0 6 9 10 20 10 11 0
20 -4 20 -10z m180 0 c0 -5 -9 -10 -20 -10 -11 0 -20 5 -20 10 0 6 9 10 20 10
11 0 20 -4 20 -10z m220 0 c0 -5 -9 -10 -20 -10 -11 0 -20 5 -20 10 0 6 9 10
20 10 11 0 20 -4 20 -10z m-1346 -19 c3 -5 -1 -12 -10 -15 -22 -9 -24 -8 -24
9 0 16 25 21 34 6z m126 -7 c0 -11 -5 -14 -16 -10 -9 3 -18 6 -20 6 -3 0 -2 5
1 10 10 16 35 12 35 -6z m1044 7 c3 -5 -1 -12 -10 -15 -22 -9 -24 -8 -24 9 0
16 25 21 34 6z m126 -7 c0 -11 -5 -14 -16 -10 -9 3 -18 6 -20 6 -3 0 -2 5 1
10 10 16 35 12 35 -6z m-1215 -24 c-3 -5 -19 -10 -35 -10 -16 0 -32 5 -35 10
-4 6 10 10 35 10 25 0 39 -4 35 -10z m362 2 c12 9 13 7 8 -14 -7 -28 -14 -23
100 -73 19 -9 37 -20 40 -25 8 -13 72 -13 80 0 3 5 21 16 40 25 114 50 107 45
100 73 -5 22 -4 24 6 15 9 -10 16 -10 26 -1 12 9 13 7 8 -14 -6 -22 -2 -28 26
-42 18 -9 38 -16 46 -16 7 0 13 -4 13 -10 0 -5 8 -10 17 -10 9 0 24 -7 32 -15
21 -19 101 -32 101 -16 0 6 9 11 20 11 11 0 20 -4 20 -10 0 -5 -9 -10 -20 -10
-11 0 -20 -4 -20 -10 0 -5 8 -10 19 -10 10 0 24 -6 31 -14 6 -8 17 -13 24 -10
8 3 16 -2 19 -10 8 -21 73 -22 81 -1 3 8 12 12 21 9 8 -4 17 1 21 10 3 9 14
16 23 16 9 0 22 5 28 11 12 12 89 3 99 -12 3 -5 14 -9 25 -9 10 0 19 -4 19 -8
0 -5 23 -18 51 -31 50 -21 51 -22 34 -41 -10 -11 -23 -20 -30 -20 -22 0 -116
-52 -112 -63 3 -11 13 -17 69 -41 20 -9 40 -21 43 -26 3 -6 15 -10 26 -10 30
0 22 -44 -8 -48 -13 -2 -23 -8 -23 -13 0 -5 -6 -9 -13 -9 -20 0 -92 -37 -107
-54 -9 -12 -32 -16 -86 -16 -56 0 -75 -4 -82 -16 -5 -8 -7 -62 -4 -120 3 -76
1 -108 -8 -119 -10 -12 -10 -19 -2 -27 7 -7 12 -42 12 -82 0 -56 -5 -76 -20
-96 -19 -23 -21 -24 -34 -7 -7 9 -20 17 -29 17 -9 0 -18 4 -22 9 -7 13 -64 41
-82 41 -7 0 -13 5 -13 10 0 17 -56 11 -97 -9 -21 -11 -45 -22 -53 -26 -23 -9
-56 -29 -75 -45 -15 -12 -19 -12 -30 3 -7 9 -19 17 -28 17 -9 0 -18 4 -22 9
-7 13 -64 41 -82 41 -7 0 -13 5 -13 10 0 6 -13 10 -29 10 -17 0 -32 4 -36 10
-3 5 -12 7 -19 4 -7 -3 -16 2 -19 10 -4 9 -16 16 -27 16 -11 0 -20 5 -20 10 0
6 -9 10 -20 10 -11 0 -23 7 -26 15 -4 8 -16 15 -29 15 -13 0 -25 -7 -29 -15
-3 -8 -15 -15 -26 -15 -11 0 -20 -4 -20 -10 0 -5 -9 -10 -19 -10 -27 0 -35
-17 -14 -29 16 -9 16 -10 -4 -11 -13 0 -23 4 -23 8 0 14 -94 9 -105 -5 -7 -9
-15 -10 -25 -3 -10 6 -11 10 -2 10 6 0 12 7 12 15 0 8 -9 15 -19 15 -11 0 -23
5 -26 10 -3 6 -14 10 -25 10 -10 0 -20 7 -24 15 -3 8 -15 15 -26 15 -11 0 -20
5 -20 10 0 6 -9 10 -19 10 -11 0 -23 5 -26 10 -3 6 -14 10 -25 10 -10 0 -20 7
-24 15 -3 8 -15 15 -26 15 -11 0 -20 5 -20 10 0 6 -9 10 -20 10 -15 0 -20 7
-20 25 0 18 5 25 20 25 11 0 20 5 20 10 0 6 9 10 20 10 11 0 23 7 27 16 3 8
11 13 19 10 16 -6 38 19 29 34 -3 5 -14 10 -25 10 -10 0 -21 7 -24 16 -3 9
-13 14 -20 11 -8 -3 -20 1 -26 9 -7 8 -18 14 -26 14 -7 0 -25 11 -40 25 -30
28 -80 55 -101 55 -7 0 -13 4 -13 9 0 5 -10 11 -22 13 -31 4 -39 48 -9 48 11
0 22 4 26 9 7 12 64 41 80 41 7 0 20 9 30 20 17 19 17 20 -1 26 -102 34 -181
94 -124 94 11 0 20 5 20 10 0 6 9 10 19 10 11 0 22 4 26 9 18 30 137 63 149
42 4 -6 15 -11 26 -11 10 0 20 -7 24 -15 3 -8 12 -12 21 -9 8 4 17 -1 21 -10
8 -22 72 -22 81 0 3 8 11 13 19 10 7 -3 18 2 24 10 7 8 21 14 31 14 11 0 19 5
19 10 0 6 -9 10 -20 10 -11 0 -20 5 -20 10 0 6 9 10 20 10 11 0 20 -5 20 -11
0 -16 80 -3 101 16 8 8 23 15 32 15 9 0 17 5 17 10 0 6 6 10 13 10 8 0 28 7
46 16 28 14 32 20 26 43 -5 21 -4 23 6 14 9 -10 16 -10 26 -1z m808 -2 c-3 -5
-19 -10 -35 -10 -16 0 -32 5 -35 10 -4 6 10 10 35 10 25 0 39 -4 35 -10z
m-1170 -70 c4 -6 -10 -10 -34 -10 -23 0 -41 5 -41 10 0 6 15 10 34 10 19 0 38
-4 41 -10z m1175 0 c0 -5 -18 -10 -41 -10 -24 0 -38 4 -34 10 3 6 22 10 41 10
19 0 34 -4 34 -10z m-1904 -25 c4 -8 14 -15 24 -15 24 0 31 -12 20 -30 -7 -12
-12 -11 -27 6 -10 11 -26 23 -36 27 -10 4 -15 11 -12 17 9 15 25 12 31 -5z
m638 9 c18 -7 12 -24 -10 -24 -8 0 -14 7 -14 15 0 17 2 18 24 9z m136 -9 c0
-8 -6 -15 -14 -15 -20 0 -29 17 -14 23 22 9 28 7 28 -8z m1034 9 c18 -7 12
-24 -10 -24 -8 0 -14 7 -14 15 0 17 2 18 24 9z m136 -9 c0 -8 -6 -15 -14 -15
-20 0 -29 17 -14 23 22 9 28 7 28 -8z m600 -34 c0 -35 -22 -46 -61 -29 -36 16
-37 31 -1 45 48 19 62 16 62 -16z m-1940 9 c0 -5 -9 -10 -20 -10 -11 0 -20 5
-20 10 0 6 9 10 20 10 11 0 20 -4 20 -10z m1390 0 c0 -5 -6 -10 -14 -10 -8 0
-18 5 -21 10 -3 6 3 10 14 10 12 0 21 -4 21 -10z m-1995 -40 c3 -5 -1 -10 -10
-10 -9 0 -13 5 -10 10 3 6 8 10 10 10 2 0 7 -4 10 -10z m2450 1 c6 -10 -49
-41 -72 -41 -7 0 -13 -4 -13 -8 0 -11 -56 -43 -64 -35 -11 11 -6 23 9 23 8 0
15 5 15 10 0 6 9 10 19 10 11 0 23 5 26 10 3 6 14 10 25 10 10 0 20 7 24 15 6
17 22 20 31 6z m-2495 -25 c0 -11 -19 -15 -25 -6 -3 5 1 10 9 10 9 0 16 -2 16
-4z m2423 -71 c1 -5 -6 -11 -15 -13 -11 -2 -18 3 -18 13 0 17 30 18 33 0z
m-3303 -25 c0 -5 -9 -10 -21 -10 -11 0 -17 5 -14 10 3 6 13 10 21 10 8 0 14
-4 14 -10z m3360 0 c0 -5 -9 -10 -20 -10 -11 0 -20 5 -20 10 0 6 9 10 20 10
11 0 20 -4 20 -10z m110 -52 c0 -37 -2 -40 -22 -34 -13 3 -31 6 -40 6 -14 0
-18 8 -18 34 0 32 3 35 33 38 44 5 47 2 47 -44z m-3522 33 c19 -11 -34 -45
-56 -36 -15 6 -14 8 6 16 12 4 22 13 22 19 0 12 10 13 28 1z m32 -51 c0 -5 9
-10 19 -10 25 0 36 -16 17 -23 -8 -3 -20 1 -26 9 -7 8 -21 14 -31 14 -11 0
-19 5 -19 10 0 6 9 10 20 10 11 0 20 -4 20 -10z m3374 -31 c-7 -11 -34 -12
-34 -1 0 14 11 21 26 15 8 -3 11 -9 8 -14z m-44 -19 c0 -5 -9 -10 -20 -10 -11
0 -20 -4 -20 -10 0 -5 9 -10 20 -10 24 0 27 -15 5 -24 -9 -3 -18 1 -21 9 -4 8
-17 15 -31 15 -13 0 -21 4 -18 10 3 6 15 10 26 10 10 0 19 5 19 10 0 6 9 10
20 10 11 0 20 -4 20 -10z m-3280 -70 c0 -5 -12 -10 -26 -10 -14 0 -23 4 -19
10 3 6 15 10 26 10 10 0 19 -4 19 -10z m3325 0 c-3 -5 -13 -10 -21 -10 -8 0
-14 5 -14 10 0 6 9 10 21 10 11 0 17 -4 14 -10z m115 -17 c0 -24 -11 -38 -34
-46 -22 -9 -46 9 -46 34 0 16 10 21 68 28 6 0 12 -7 12 -16z m-3497 -8 c1 -5
-6 -11 -15 -13 -11 -2 -18 3 -18 13 0 17 30 18 33 0z m-873 -10 c0 -12 -14
-15 -65 -15 l-65 0 0 -1920 0 -1919 67 -3 c42 -2 68 -8 71 -15 5 -17 -139 -18
-156 -1 -9 9 -12 454 -12 1940 l0 1929 23 9 c12 5 48 9 80 9 44 1 57 -2 57
-14z m6274 5 l26 -10 0 -1928 c0 -1486 -3 -1931 -12 -1940 -16 -16 -91 -16
-86 1 3 6 19 13 36 15 l32 3 0 1920 0 1919 -29 0 c-30 0 -46 12 -34 24 9 9 38
7 67 -4z m-5423 -43 c-6 -6 -21 -4 -40 4 -22 10 -27 17 -19 26 8 10 16 9 39
-4 17 -10 25 -21 20 -26z m49 -17 c0 -5 -9 -10 -20 -10 -11 0 -20 5 -20 10 0
6 9 10 20 10 11 0 20 -4 20 -10z m1405 1 c3 -5 -9 -17 -26 -25 -37 -18 -59
-20 -59 -6 0 6 11 10 24 10 13 0 26 7 30 15 6 17 22 20 31 6z m-82 -55 c22
-17 22 -26 -3 -26 -11 0 -20 5 -20 10 0 6 -7 10 -15 10 -8 0 -15 5 -15 10 0
14 32 12 53 -4z m61 -35 c3 -5 -1 -12 -10 -15 -22 -9 -24 -8 -24 9 0 16 25 21
34 6z m38 -33 c-9 -9 -15 -9 -24 0 -9 9 -7 12 12 12 19 0 21 -3 12 -12z m3
-68 c3 -5 -3 -10 -15 -10 -12 0 -18 5 -15 10 3 6 10 10 15 10 5 0 12 -4 15
-10z m-1230 -20 c3 -5 -1 -10 -10 -10 -9 0 -13 5 -10 10 3 6 8 10 10 10 2 0 7
-4 10 -10z m1179 4 c18 -7 12 -24 -10 -24 -8 0 -14 7 -14 15 0 17 2 18 24 9z
m-1228 -40 c-3 -9 -6 -18 -6 -20 0 -2 -9 -4 -20 -4 -11 0 -20 5 -20 10 0 6 7
10 15 10 8 0 15 5 15 10 0 6 5 10 11 10 6 0 8 -7 5 -16z m1194 10 c0 -12 -34
-33 -52 -34 -10 0 -18 5 -18 10 0 6 7 10 15 10 8 0 15 5 15 10 0 6 9 10 20 10
11 0 20 -3 20 -6z m-1150 -43 c0 -11 -26 -22 -34 -14 -12 12 -5 23 14 23 11 0
20 -4 20 -9z m1189 -7 c17 -8 29 -20 26 -25 -10 -15 -35 -10 -35 7 0 10 -7 14
-22 12 -11 -2 -23 3 -25 10 -6 17 18 15 56 -4z m-1154 -10 c13 -5 14 -8 3 -15
-19 -13 -28 -11 -28 6 0 17 2 18 25 9z m675 -14 c0 -5 -4 -10 -10 -10 -5 0
-10 5 -10 10 0 6 5 10 10 10 6 0 10 -4 10 -10z m50 -20 c0 -5 -7 -10 -16 -10
-8 0 -12 5 -9 10 3 6 10 10 16 10 5 0 9 -4 9 -10z m510 0 c0 -5 9 -10 19 -10
28 0 35 -17 10 -23 -12 -3 -22 0 -26 9 -3 8 -14 14 -24 14 -10 0 -19 5 -19 10
0 6 9 10 20 10 11 0 20 -4 20 -10z m-467 -16 c11 -11 -3 -24 -18 -18 -8 4 -12
10 -9 15 6 11 18 12 27 3z m551 -35 c-7 -11 -34 -12 -34 -1 0 14 11 21 26 15
8 -3 11 -9 8 -14z m181 12 c8 -14 -13 -24 -33 -16 -14 5 -14 7 -2 15 19 12 27
12 35 1z m219 -12 c-7 -11 -34 -12 -34 -1 0 14 11 21 26 15 8 -3 11 -9 8 -14z
m181 12 c8 -14 -13 -24 -33 -16 -14 5 -14 7 -2 15 19 12 27 12 35 1z m-1175
-11 c0 -5 -4 -10 -9 -10 -6 0 -13 5 -16 10 -3 6 1 10 9 10 9 0 16 -4 16 -10z
m-50 -20 c0 -5 -4 -10 -10 -10 -5 0 -10 5 -10 10 0 6 5 10 10 10 6 0 10 -4 10
-10z m700 0 c0 -5 -9 -10 -20 -10 -11 0 -20 5 -20 10 0 6 9 10 20 10 11 0 20
-4 20 -10z m80 0 c0 -5 -9 -10 -20 -10 -11 0 -20 5 -20 10 0 6 9 10 20 10 11
0 20 -4 20 -10z m320 0 c0 -5 -9 -10 -20 -10 -11 0 -20 5 -20 10 0 6 9 10 20
10 11 0 20 -4 20 -10z m80 0 c0 -5 -9 -10 -20 -10 -11 0 -20 5 -20 10 0 6 9
10 20 10 11 0 20 -4 20 -10z m-1229 -23 c-1 -12 -15 -9 -19 4 -3 6 1 10 8 8 6
-3 11 -8 11 -12z m771 -19 c-9 -9 -12 -7 -12 12 0 19 3 21 12 12 9 -9 9 -15 0
-24z m408 18 c0 -8 -4 -18 -10 -21 -5 -3 -10 3 -10 14 0 12 5 21 10 21 6 0 10
-6 10 -14z m-595 -126 c3 -5 15 -10 26 -10 10 0 19 -4 19 -10 0 -5 9 -10 19
-10 11 0 22 -4 26 -9 10 -18 68 -41 99 -40 17 0 45 9 61 19 17 11 46 26 65 35
19 9 42 20 50 24 16 8 122 -34 128 -50 2 -5 12 -9 22 -9 10 0 22 -4 25 -10 12
-19 43 -13 105 21 8 5 39 20 69 34 48 23 58 25 85 14 17 -7 38 -18 47 -26 8
-7 21 -13 27 -13 7 0 12 -7 12 -15 0 -12 -13 -15 -60 -15 -76 0 -84 -12 -70
-107 21 -144 9 -236 -32 -248 -10 -4 -18 -11 -18 -16 0 -5 -9 -9 -19 -9 -10 0
-21 -7 -25 -15 -3 -8 -12 -12 -21 -9 -9 4 -17 -1 -21 -10 -5 -13 -14 -15 -43
-10 -20 4 -40 10 -45 15 -6 5 -18 9 -28 9 -10 0 -18 5 -18 10 0 6 -9 10 -19
10 -11 0 -23 4 -26 10 -3 5 -23 17 -43 26 -20 8 -45 20 -54 25 -10 5 -25 9
-33 9 -8 0 -15 5 -15 10 0 6 -9 10 -19 10 -11 0 -22 4 -26 9 -16 27 -105 53
-105 31 0 -5 -9 -10 -20 -10 -11 0 -23 -7 -26 -15 -4 -8 -14 -15 -23 -15 -10
0 -21 -3 -24 -7 -9 -8 24 -32 46 -33 21 0 22 -16 2 -24 -9 -3 -18 1 -21 9 -4
8 -15 15 -25 15 -10 0 -19 5 -19 11 0 7 -10 9 -25 5 -22 -6 -99 27 -129 55 -6
5 -17 9 -25 9 -20 1 -61 34 -61 49 0 6 11 11 25 11 14 0 25 5 25 10 0 6 8 10
19 10 10 0 24 6 31 14 6 8 17 13 24 10 7 -3 19 2 26 11 11 13 9 15 -9 15 -11
0 -21 5 -21 10 0 6 -8 10 -19 10 -10 0 -24 6 -31 14 -6 8 -17 13 -24 10 -8 -3
-16 2 -19 10 -4 9 -13 16 -22 16 -29 0 -15 29 23 46 66 29 96 44 127 64 35 22
42 23 50 10z m1197 -10 c10 0 18 -5 18 -10 0 -6 12 -15 26 -20 47 -18 14 -30
-87 -30 -78 0 -99 3 -99 14 0 7 8 17 18 20 9 4 33 15 52 25 21 12 39 16 45 10
5 -5 17 -9 27 -9z m-2727 -60 c20 -11 42 -20 50 -20 8 0 15 -4 15 -10 0 -5 9
-10 19 -10 11 0 22 -4 26 -9 7 -12 64 -41 81 -41 7 0 14 -3 16 -7 2 -5 30 -22
62 -39 l60 -31 -2 -109 c-2 -60 1 -114 5 -120 10 -13 100 -64 114 -64 5 0 27
-11 49 -25 l40 -25 0 -115 c0 -63 -2 -115 -3 -115 -2 0 -43 20 -91 45 -49 25
-92 45 -97 45 -5 0 -9 -51 -9 -114 0 -63 -4 -117 -9 -121 -5 -3 -25 4 -43 15
-27 16 -101 55 -130 68 -5 2 -8 -46 -8 -107 0 -60 -4 -112 -9 -116 -5 -3 -25
4 -43 15 -18 10 -53 30 -78 42 -25 13 -47 24 -50 25 -3 2 -5 -48 -5 -109 0
-102 -2 -113 -19 -116 -18 -4 -128 46 -134 61 -2 4 -11 7 -21 7 -9 0 -22 5
-29 12 -14 14 -14 20 -12 -109 1 -87 -1 -103 -14 -103 -9 0 -16 5 -16 10 0 6
-6 10 -13 10 -18 0 -75 28 -82 41 -4 5 -13 9 -21 9 -35 0 -44 26 -44 131 0
109 -11 139 -52 139 -10 0 -18 4 -18 8 0 5 -22 18 -50 30 -27 12 -54 30 -60
41 -14 26 -13 214 1 228 10 10 84 -21 141 -60 9 -6 19 -9 22 -6 3 3 8 106 12
230 3 123 8 227 10 231 4 6 34 -7 89 -42 17 -10 38 -19 48 -19 9 -1 17 -5 17
-11 0 -5 7 -10 16 -10 13 0 15 16 13 113 -2 65 1 112 7 111 12 0 52 -20 89
-43 17 -11 36 -20 43 -20 7 -1 20 -8 28 -16 8 -8 22 -11 30 -8 13 5 15 23 12
114 -1 60 0 109 4 109 4 0 23 -9 43 -20z m4647 -102 c3 -109 4 -113 26 -116
13 -2 25 3 28 12 3 9 14 16 24 16 11 0 22 5 25 10 3 6 14 10 25 10 10 0 21 7
24 16 4 9 9 14 13 11 3 -4 12 -2 20 5 12 9 13 -6 11 -97 -2 -84 -6 -110 -18
-116 -8 -4 -43 -20 -77 -36 -35 -15 -63 -31 -63 -35 0 -5 -7 -8 -15 -8 -12 0
-15 17 -15 95 0 77 -3 97 -15 102 -9 3 -24 -2 -34 -11 -10 -9 -22 -16 -28 -16
-6 0 -28 -9 -50 -19 -21 -11 -55 -26 -75 -35 -20 -9 -40 -21 -43 -26 -3 -6
-15 -10 -26 -10 -10 0 -19 -4 -19 -10 0 -5 -8 -10 -17 -10 -9 0 -24 -7 -34
-16 -31 -28 -39 -8 -39 103 0 113 11 143 52 143 10 0 18 5 18 10 0 6 9 10 19
10 11 0 22 4 25 9 3 5 36 24 73 43 38 18 70 36 71 41 2 4 11 7 21 7 9 0 21 4
27 9 8 8 30 16 56 20 4 0 9 -50 10 -111z m-3342 37 c0 -8 -7 -15 -15 -15 -8 0
-15 -4 -15 -10 0 -5 -11 -10 -25 -10 -18 0 -25 -5 -25 -20 0 -13 -7 -20 -20
-20 -13 0 -20 7 -20 20 0 13 7 20 19 20 11 0 23 5 26 10 3 6 14 10 25 10 10 0
20 7 24 15 3 8 10 15 16 15 5 0 10 -7 10 -15z m-42 -84 c11 -7 10 -10 -3 -15
-20 -7 -38 1 -30 15 7 11 16 11 33 0z m57 -31 c-3 -5 -15 -10 -26 -10 -10 0
-19 5 -19 10 0 6 12 10 26 10 14 0 23 -4 19 -10z m359 -176 c18 -7 12 -24 -10
-24 -8 0 -14 7 -14 15 0 17 2 18 24 9z m96 -8 c0 -11 -19 -15 -25 -6 -3 5 1
10 9 10 9 0 16 -2 16 -4z m-40 -26 c0 -5 -6 -10 -14 -10 -8 0 -18 5 -21 10 -3
6 3 10 14 10 12 0 21 -4 21 -10z m475 -50 c-3 -5 -12 -10 -20 -10 -8 0 -17 5
-20 10 -4 6 5 10 20 10 15 0 24 -4 20 -10z m35 -20 c0 -5 -7 -10 -15 -10 -8 0
-15 5 -15 10 0 6 7 10 15 10 8 0 15 -4 15 -10z m-1095 -110 c3 -5 15 -10 26
-10 10 0 19 -4 19 -10 0 -5 9 -10 19 -10 11 0 23 -4 26 -10 3 -5 21 -16 40
-25 46 -20 92 -42 135 -65 19 -10 52 -25 72 -34 45 -20 47 -28 51 -166 2 -93
4 -106 22 -115 74 -38 75 -40 75 -135 0 -60 -4 -93 -13 -102 -10 -10 -68 -13
-253 -13 l-239 0 -3 116 c-3 115 -3 117 -27 123 -14 4 -25 11 -25 16 0 6 -6
10 -13 10 -7 0 -36 12 -65 26 l-52 26 0 114 c0 107 1 114 20 114 11 0 20 -4
20 -10 0 -5 9 -10 19 -10 11 0 23 -4 26 -10 10 -16 73 -42 85 -35 8 5 11 43
10 109 -1 55 -1 104 -1 109 1 10 19 9 26 -3z m3297 -95 c3 -90 1 -107 -15
-120 -9 -8 -23 -15 -31 -15 -8 0 -17 -7 -20 -16 -3 -9 -13 -14 -21 -10 -8 3
-18 -1 -22 -8 -5 -7 -18 -15 -30 -18 -23 -6 -23 -5 -23 103 0 91 2 109 15 109
9 0 18 7 21 15 4 8 14 15 24 15 11 0 22 5 25 10 3 6 14 10 25 10 10 0 20 7 24
15 15 39 25 6 28 -90z m778 -98 c0 -96 -3 -116 -17 -128 -28 -22 -61 -39 -78
-39 -8 0 -15 -4 -15 -10 0 -5 -8 -10 -18 -10 -10 0 -29 -11 -41 -24 -21 -22
-22 -32 -20 -124 3 -104 -5 -131 -40 -133 -9 0 -29 -9 -46 -19 -16 -10 -42
-25 -56 -33 l-26 -14 -6 171 c-11 281 -10 316 11 317 9 0 31 9 47 20 17 10 37
21 45 25 8 3 32 14 53 25 22 10 47 19 58 19 10 0 19 5 19 10 0 6 6 10 13 10
18 0 75 28 82 41 4 5 13 9 21 9 11 0 14 -21 14 -113z m-578 -46 c-1 -83 -4
-107 -18 -122 -9 -10 -23 -19 -31 -19 -14 0 -46 -16 -73 -36 -8 -7 -25 -15
-38 -19 l-23 -7 3 113 c3 108 4 114 26 125 13 6 29 17 35 23 6 6 19 11 29 11
10 0 18 5 18 10 0 6 9 10 19 10 11 0 23 5 26 11 19 29 28 -4 27 -100z m-600
-308 l3 -108 28 -3 c18 -2 29 2 33 12 3 9 17 16 30 16 13 0 24 5 24 10 0 6 9
10 19 10 10 0 21 7 25 15 3 8 15 15 26 15 19 0 20 -6 20 -110 0 -103 -1 -110
-20 -110 -11 0 -20 -4 -20 -10 0 -5 -9 -10 -19 -10 -11 0 -21 -3 -23 -7 -4
-11 -67 -43 -82 -43 -24 0 -36 -51 -36 -151 0 -103 -9 -129 -44 -129 -8 0 -17
-4 -21 -9 -7 -13 -64 -41 -82 -41 -7 0 -13 -4 -13 -10 0 -5 -4 -10 -10 -10 -6
0 -10 43 -10 109 0 74 -4 112 -12 117 -6 4 -14 2 -16 -4 -2 -7 -12 -12 -23
-12 -11 0 -22 -7 -25 -15 -4 -8 -14 -15 -24 -15 -11 0 -22 -4 -25 -10 -3 -5
-15 -10 -26 -10 -10 0 -19 -4 -19 -10 0 -5 -10 -10 -22 -10 -23 0 -23 -1 -20
-129 l4 -129 -33 -16 c-17 -9 -36 -16 -41 -16 -4 0 -26 -11 -48 -25 -22 -14
-48 -25 -57 -25 -17 0 -18 -19 -21 -245 -2 -135 -1 -245 2 -245 2 0 43 20 92
45 48 25 91 45 96 45 4 0 8 -52 8 -115 0 -97 3 -117 16 -122 10 -4 20 0 26 10
5 10 15 17 22 17 8 0 40 14 71 30 32 17 59 29 60 28 2 -2 5 -49 7 -106 2 -77
0 -102 -9 -102 -7 0 -13 -4 -13 -10 0 -5 -9 -10 -20 -10 -11 0 -23 -7 -26 -15
-4 -8 -14 -15 -24 -15 -11 0 -22 -4 -25 -10 -3 -5 -14 -10 -25 -10 -10 0 -20
-7 -24 -15 -15 -40 -26 -7 -28 87 -3 90 -5 103 -21 106 -20 4 -82 -22 -92 -38
-3 -6 -15 -10 -26 -10 -10 0 -19 -4 -19 -10 0 -5 -11 -10 -24 -10 -14 0 -28
-4 -31 -10 -3 -5 -15 -10 -26 -10 -10 0 -19 -4 -19 -10 0 -5 -9 -10 -19 -10
-11 0 -23 -4 -26 -10 -3 -5 -14 -10 -25 -10 -10 0 -20 -7 -24 -15 -3 -8 -10
-15 -16 -15 -8 0 -11 37 -10 113 0 61 0 164 0 227 -1 63 -1 224 -1 358 1 230
2 242 20 242 10 0 24 6 31 14 6 8 17 13 24 10 8 -3 16 2 19 10 4 9 16 16 27
16 11 0 20 5 20 10 0 6 9 10 19 10 27 0 31 18 31 144 0 116 6 136 42 136 10 0
21 7 24 15 4 8 14 15 24 15 11 0 22 5 25 10 3 6 15 10 26 10 10 0 19 4 19 10
0 5 16 16 35 25 19 8 51 22 70 30 19 9 37 20 40 25 3 6 15 10 26 10 10 0 19 5
19 10 0 6 8 10 19 10 26 0 31 26 31 154 0 89 2 107 14 103 8 -3 20 1 26 9 7 8
21 14 31 14 11 0 19 5 19 10 0 6 9 10 20 10 11 0 23 7 26 15 15 38 24 6 26
-92z m-3269 5 c12 -6 29 -15 37 -19 8 -5 31 -16 50 -25 69 -34 70 -36 70 -155
l0 -108 30 -23 31 -22 -3 -200 c-2 -165 -5 -203 -19 -219 -15 -19 -28 -20
-298 -18 -348 3 -335 7 -327 -107 16 -224 18 -314 6 -325 -9 -9 -14 -8 -24 6
-7 9 -17 17 -23 17 -14 0 -112 50 -119 61 -3 5 -14 9 -25 9 -18 0 -19 8 -19
122 0 129 -10 158 -52 158 -10 0 -18 5 -18 10 0 6 -8 10 -19 10 -10 0 -24 7
-31 15 -7 8 -17 15 -23 15 -6 0 -19 7 -29 17 -15 14 -18 32 -18 118 0 56 3
104 6 107 6 7 107 -42 112 -54 2 -5 12 -8 23 -8 10 0 19 -4 19 -10 0 -5 5 -10
10 -10 6 0 10 31 10 73 0 177 13 387 25 387 11 0 97 -42 126 -62 9 -6 24 -8
33 -5 13 5 16 24 16 123 0 104 2 115 15 104 22 -18 106 -60 120 -60 7 0 18 -6
24 -14 7 -8 27 -17 45 -20 19 -4 39 -13 46 -21 7 -8 18 -15 25 -15 16 0 73
-29 80 -40 3 -5 12 -7 20 -3 12 4 15 26 15 104 0 107 4 113 53 87z m2301 -173
c11 -11 38 -15 101 -15 63 0 90 4 101 15 11 11 38 15 94 15 66 0 78 -2 74 -15
-4 -8 -14 -15 -23 -16 -9 0 -29 -9 -46 -20 -16 -10 -37 -22 -45 -25 -45 -21
-50 -33 -50 -142 0 -84 -3 -109 -17 -124 -9 -10 -22 -18 -28 -18 -7 0 -18 -7
-25 -15 -7 -8 -21 -15 -31 -15 -11 0 -19 -4 -19 -10 0 -5 -6 -10 -14 -10 -7 0
-27 -7 -42 -15 l-29 -15 -5 -122 -5 -122 -40 -28 c-22 -15 -48 -27 -57 -28
-10 0 -18 -4 -18 -10 0 -5 -8 -10 -17 -10 -9 0 -24 -7 -34 -16 -10 -9 -23 -13
-28 -9 -18 10 -13 103 8 143 16 32 19 72 25 312 5 189 11 279 19 287 15 15 84
40 114 42 12 0 28 -6 37 -14z m1366 -350 c0 -97 2 -115 17 -124 15 -8 17 -22
14 -90 -2 -54 1 -81 8 -81 7 0 11 33 11 95 0 88 1 95 20 95 11 0 20 5 20 10 0
6 8 10 19 10 10 0 24 6 30 14 6 8 21 16 31 19 19 5 20 0 20 -91 0 -99 -14
-138 -46 -125 -8 3 -17 -2 -20 -11 -3 -9 -14 -16 -24 -16 -11 0 -22 -4 -25
-10 -3 -5 -13 -10 -21 -10 -9 0 -24 -10 -35 -22 -16 -20 -18 -41 -19 -140 0
-109 -1 -118 -19 -118 -10 0 -21 -7 -25 -15 -3 -8 -15 -15 -26 -15 -11 0 -20
-4 -20 -10 0 -5 -7 -10 -15 -10 -19 0 -57 -21 -68 -37 -4 -7 -38 -27 -75 -44
-37 -18 -68 -36 -70 -41 -2 -4 -11 -8 -19 -8 -9 0 -31 -11 -49 -25 -18 -14
-37 -25 -42 -25 -14 0 -71 -30 -77 -41 -4 -5 -15 -9 -26 -9 -10 0 -19 -4 -19
-10 0 -5 -7 -10 -16 -10 -12 0 -15 6 -10 23 3 12 6 122 6 245 0 179 3 222 13
222 18 0 75 28 82 41 4 5 15 9 26 9 10 0 19 5 19 10 0 6 7 10 15 10 9 0 18 7
21 15 4 8 14 15 24 15 11 0 21 4 25 9 7 13 64 41 82 41 7 0 13 5 13 10 0 6 7
10 15 10 9 0 29 10 45 22 l30 22 0 111 0 111 35 14 c20 8 41 20 47 27 6 7 19
13 30 13 10 0 21 7 24 15 16 40 24 5 24 -100z m-5035 16 c7 -13 64 -41 82 -41
7 0 13 -4 13 -10 0 -5 9 -10 19 -10 11 0 23 -5 27 -12 4 -6 6 -61 5 -123 -2
-130 -4 -126 109 -180 122 -59 145 -71 148 -77 2 -5 11 -8 20 -9 10 0 31 -9
47 -20 17 -10 40 -23 53 -29 21 -9 22 -15 22 -129 l0 -119 68 -34 c37 -18 69
-36 70 -40 2 -5 13 -8 23 -8 17 0 20 -6 17 -42 l-3 -43 -65 2 c-36 2 -128 -3
-205 -10 l-140 -12 -3 -83 -3 -82 -27 6 c-15 4 -34 12 -42 19 -8 6 -32 19 -52
29 l-38 17 0 116 c0 94 -3 120 -17 135 -9 10 -22 18 -28 18 -7 0 -18 7 -25 15
-7 8 -21 15 -31 15 -11 0 -19 5 -19 10 0 6 -8 10 -19 10 -10 0 -23 6 -30 13
-12 15 -29 672 -18 701 7 17 32 22 42 7z m3381 -321 l64 0 0 -65 c0 -58 -2
-65 -20 -65 -11 0 -20 -4 -20 -10 0 -5 -8 -10 -19 -10 -10 0 -24 -7 -31 -15
-7 -8 -21 -15 -31 -15 -11 0 -19 -4 -19 -10 0 -5 -9 -10 -19 -10 -11 0 -22 -4
-26 -9 -7 -13 -64 -41 -82 -41 -7 0 -13 -4 -13 -10 0 -5 -9 -10 -20 -10 -10 0
-23 -8 -29 -17 -17 -32 -24 -5 -23 101 0 113 3 126 32 126 10 0 22 4 25 10 3
5 23 17 43 26 20 8 44 20 52 25 8 5 28 6 44 4 16 -3 57 -5 92 -5z m2247 -357
c-1 -60 -2 -163 -2 -230 l-1 -122 -32 -15 c-17 -9 -37 -16 -45 -16 -7 0 -13
-4 -13 -10 0 -5 -7 -10 -15 -10 -9 0 -29 -10 -45 -22 l-30 -22 0 -123 c0 -112
-2 -123 -18 -123 -10 0 -23 -5 -29 -11 -21 -21 -162 -86 -173 -79 -11 7 -11
41 8 353 7 127 7 127 36 142 15 8 35 15 42 15 8 0 14 5 14 10 0 6 8 10 18 10
10 0 23 5 28 10 6 6 26 19 45 29 l34 18 3 104 c1 56 8 109 14 116 6 7 27 21
47 30 20 9 43 22 51 29 13 10 24 15 60 23 3 0 4 -47 3 -106z m-3283 -503 c0
-5 9 -10 19 -10 11 0 22 -4 26 -9 7 -12 64 -41 80 -41 21 0 25 -25 25 -139 0
-116 3 -123 60 -148 29 -13 94 -44 121 -58 18 -9 19 -24 19 -242 0 -135 -4
-233 -9 -233 -13 0 -75 33 -79 43 -2 4 -10 7 -18 7 -7 0 -29 9 -49 20 -20 11
-38 20 -40 20 -3 0 -5 -50 -5 -110 0 -142 -4 -144 -129 -69 -18 11 -38 18 -44
16 -6 -2 -11 -43 -11 -103 l-1 -99 -27 -3 c-16 -2 -28 1 -28 7 0 6 -7 11 -15
11 -9 0 -33 11 -55 25 -22 14 -45 25 -52 26 -7 0 -26 9 -43 19 -52 32 -88 50
-102 50 -7 0 -13 5 -13 10 0 6 -9 10 -19 10 -11 0 -23 5 -26 10 -18 29 -25 0
-25 -100 0 -86 -3 -110 -13 -110 -18 0 -75 28 -82 41 -4 5 -15 9 -26 9 -10 0
-19 4 -19 9 0 5 -10 11 -22 13 -22 3 -23 7 -26 125 l-3 121 -32 17 c-72 38
-85 46 -97 60 -12 15 -19 210 -7 221 3 4 32 -7 64 -22 32 -16 62 -29 67 -29 6
0 9 45 7 108 -3 122 3 132 60 98 19 -12 41 -23 49 -27 8 -3 23 -10 32 -15 34
-18 48 -11 48 25 0 61 -1 61 128 59 64 -1 129 0 144 3 36 7 51 49 46 129 l-4
64 26 -6 c14 -3 27 -10 28 -15 2 -4 10 -8 18 -8 11 0 14 22 14 115 0 108 1
115 20 115 11 0 20 -4 20 -10z m940 -312 c0 -192 -2 -224 -17 -240 -9 -10 -24
-18 -35 -18 -10 0 -18 -4 -18 -10 0 -5 -7 -10 -15 -10 -18 0 -52 -18 -81 -43
l-22 -18 -7 230 c-8 243 -5 261 36 261 10 0 20 4 24 9 7 13 64 41 82 41 7 0
13 5 13 10 0 6 9 10 20 10 19 0 20 -7 20 -222z m1920 117 c0 -96 -2 -105 -19
-105 -10 0 -24 -7 -31 -15 -7 -8 -16 -13 -20 -10 -4 3 -13 -2 -20 -10 -7 -8
-21 -15 -30 -15 -10 0 -21 -6 -23 -12 -3 -7 -6 33 -6 90 -1 107 7 132 44 132
8 0 18 7 21 15 4 8 17 15 30 15 13 0 24 5 24 10 0 6 7 10 15 10 12 0 15 -18
15 -105z m-1530 -629 c6 -6 16 -4 28 7 10 9 26 17 35 17 9 0 17 5 17 10 0 6 7
10 15 10 9 0 34 12 56 26 25 16 45 22 51 16 5 -5 7 -58 6 -118 l-3 -109 -165
-82 c-90 -46 -168 -83 -173 -83 -5 0 -15 -7 -23 -15 -8 -8 -21 -12 -30 -8 -12
4 -14 24 -13 103 1 54 -2 103 -5 109 -10 16 -31 14 -46 -4 -7 -8 -21 -15 -31
-15 -11 0 -19 -4 -19 -10 0 -5 -9 -10 -20 -10 -10 0 -23 -7 -28 -16 -19 -35
-27 -2 -24 103 l3 110 37 15 c20 9 45 18 55 21 9 4 17 11 17 17 0 5 8 10 19
10 10 0 27 12 36 27 16 24 17 44 9 240 l-9 214 25 17 c40 27 71 42 86 42 8 0
14 4 14 8 0 5 12 12 28 18 l27 10 8 -335 c4 -193 11 -339 17 -345z m1182 462
c-4 -106 -12 -127 -53 -128 -9 0 -19 -7 -23 -15 -3 -8 -12 -12 -21 -9 -8 4
-17 -1 -21 -10 -3 -9 -13 -16 -22 -16 -8 0 -24 -7 -34 -17 -17 -15 -18 -12
-18 95 0 89 3 112 14 112 7 0 19 7 26 15 7 8 21 15 31 15 11 0 19 5 19 10 0 6
8 10 18 11 9 0 31 9 47 19 17 10 32 19 35 19 3 1 4 -45 2 -101z m588 -502 c0
-124 -3 -166 -13 -175 -9 -7 -114 -12 -318 -13 l-304 -3 -3 -304 c-1 -204 -6
-309 -13 -318 -9 -11 -137 -13 -695 -13 -444 0 -684 3 -684 10 0 5 18 13 41
16 22 4 43 13 46 20 3 8 12 14 21 14 8 0 30 11 48 25 18 14 44 25 58 25 15 0
26 6 26 13 0 7 16 20 35 27 20 8 41 20 47 27 6 7 25 13 43 13 18 0 38 7 45 15
7 8 17 15 22 15 5 0 24 11 42 25 18 14 45 25 59 25 15 0 27 6 27 13 0 12 44
37 66 37 6 0 14 7 18 15 3 9 18 15 39 15 18 0 42 7 53 15 10 8 27 15 36 15 9
0 20 9 23 20 4 14 19 22 46 26 23 4 39 12 39 20 0 8 8 14 19 14 10 0 24 7 31
15 7 8 19 15 26 15 8 0 14 5 14 10 0 6 32 10 75 10 l75 0 0 35 c0 33 2 35 40
41 22 4 45 13 51 20 6 8 16 14 21 14 5 0 24 11 42 25 27 21 44 25 99 25 l66 0
3 38 c3 35 5 37 39 40 21 2 45 12 54 23 10 10 25 19 33 19 8 0 20 8 27 17 10
13 32 18 89 21 72 4 76 6 76 27 0 42 11 55 45 55 18 0 44 9 58 20 14 11 30 20
36 20 5 0 14 6 18 14 11 18 30 24 76 25 l37 1 0 -164z m-1389 -129 c0 -53 0
-104 -1 -112 0 -8 -9 -15 -20 -15 -11 0 -23 -7 -26 -15 -4 -8 -14 -15 -24 -15
-11 0 -22 -4 -25 -10 -3 -5 -14 -10 -25 -10 -10 0 -21 -7 -24 -16 -15 -38 -26
5 -26 100 0 86 3 105 18 117 27 22 60 39 77 39 8 0 15 5 15 10 0 6 9 10 20 10
11 0 20 5 20 11 0 6 5 9 11 7 7 -2 11 -40 10 -101z m-2988 -39 c20 -10 27 -20
27 -40 0 -27 2 -28 50 -28 28 0 50 -4 50 -10 0 -5 8 -10 18 -10 23 0 42 -19
42 -42 0 -15 9 -18 63 -18 71 -1 97 -15 97 -54 0 -25 3 -26 48 -26 65 0 112
-24 112 -56 0 -23 3 -24 68 -24 75 0 92 -9 92 -52 0 -28 1 -28 60 -28 33 0 60
-4 60 -10 0 -5 9 -10 20 -10 16 0 20 -7 20 -30 0 -30 1 -30 54 -30 79 0 106
-13 106 -50 0 -30 1 -30 53 -30 72 0 107 -17 107 -52 0 -27 2 -28 53 -28 60 0
97 -8 97 -21 0 -15 -1433 -12 -1448 3 -9 9 -12 97 -12 335 l0 323 68 0 c37 0
80 -6 95 -12z"/>
<path d="M6075 5000 c3 -5 10 -10 16 -10 5 0 9 5 9 10 0 6 -7 10 -16 10 -8 0
-12 -4 -9 -10z"/>
<path d="M6030 4980 c0 -5 7 -10 15 -10 8 0 15 5 15 10 0 6 -7 10 -15 10 -8 0
-15 -4 -15 -10z"/>
<path d="M5985 4960 c-3 -5 1 -10 9 -10 9 0 16 5 16 10 0 6 -4 10 -9 10 -6 0
-13 -4 -16 -10z"/>
<path d="M5940 4930 c0 -5 5 -10 10 -10 6 0 10 5 10 10 0 6 -4 10 -10 10 -5 0
-10 -4 -10 -10z"/>
<path d="M7245 4630 c-3 -5 3 -10 14 -10 12 0 21 5 21 10 0 6 -6 10 -14 10 -8
0 -18 -4 -21 -10z"/>
<path d="M7207 4614 c-8 -8 1 -24 14 -24 5 0 9 7 9 15 0 15 -12 20 -23 9z"/>
<path d="M7155 4580 c3 -5 10 -10 16 -10 5 0 9 5 9 10 0 6 -7 10 -16 10 -8 0
-12 -4 -9 -10z"/>
<path d="M7260 4344 c0 -8 5 -12 10 -9 6 4 8 11 5 16 -9 14 -15 11 -15 -7z"/>
<path d="M7210 4320 c0 -5 7 -10 15 -10 8 0 15 5 15 10 0 6 -7 10 -15 10 -8 0
-15 -4 -15 -10z"/>
<path d="M7157 4295 c-14 -10 -17 -29 -17 -104 0 -54 4 -91 10 -91 6 0 10 38
10 94 0 90 1 95 23 98 17 2 18 5 7 9 -9 4 -24 1 -33 -6z"/>
<path d="M7737 3873 c-11 -11 -8 -193 3 -193 6 0 10 40 10 100 0 100 -1 106
-13 93z"/>
</g>
</svg>
